<?xml version="1.0" encoding="UTF-8"?><svg id="Layer_1" xmlns="http://www.w3.org/2000/svg" viewBox="0 0 1615.21 1503.81"><defs><style>.cls-1{font-size:220px;}.cls-1,.cls-2{font-family:FrankRuhlLibre-Regular, 'Frank Ruhl Libre';font-variation-settings:'wght' 400;}.cls-2{font-size:200px;}</style></defs><text class="cls-1" transform="translate(770.98 230.57) rotate(5.09)"><tspan x="0" y="0">D</tspan></text><text class="cls-1" transform="translate(920.88 244.72) rotate(20.11)"><tspan x="0" y="0">E</tspan></text><text class="cls-1" transform="translate(1035 286.48) rotate(32.78)"><tspan x="0" y="0">S</tspan></text><text class="cls-1" transform="translate(1125.56 346.16) rotate(42.62)"><tspan x="0" y="0">I</tspan></text><text class="cls-1" transform="translate(1175.08 385.59) rotate(53.38)"><tspan x="0" y="0">G</tspan></text><text class="cls-1" transform="translate(1258.4 494.64) rotate(68.98)"><tspan x="0" y="0">N</tspan></text><text class="cls-1" transform="translate(1307.42 633.77) rotate(79.77)"><tspan x="0" y="0"> </tspan></text><text class="cls-1" transform="translate(1319.19 679.21) rotate(89.07)"><tspan x="0" y="0">R</tspan></text><text class="cls-1" transform="translate(1324.04 799.83) rotate(103.82)"><tspan x="0" y="0">O</tspan></text><text class="cls-1" transform="translate(1289.2 942.81) rotate(119.42)"><tspan x="0" y="0">C</tspan></text><text class="cls-1" transform="translate(1223.82 1060.57) rotate(134.08)"><tspan x="0" y="0">K</tspan></text><text class="cls-1" transform="translate(1131.15 1155.44) rotate(147.25)"><tspan x="0" y="0">S</tspan></text><text class="cls-1" transform="translate(1038.78 1212.95) rotate(156.46)"><tspan x="0" y="0">!</tspan></text><text class="cls-2" transform="translate(984.56 1236.36) rotate(162.22)"><tspan x="0" y="0"> </tspan></text><text class="cls-1" transform="translate(942.27 1250.2) rotate(167.46)"><tspan x="0" y="0"> </tspan></text><text class="cls-1" transform="translate(894.35 1261.02) rotate(172.92)"><tspan x="0" y="0"> </tspan></text><text class="cls-1" transform="translate(848.91 1272.35) rotate(-176.21)"><tspan x="0" y="0">D</tspan></text><text class="cls-1" transform="translate(698.72 1261.62) rotate(-161.21)"><tspan x="0" y="0">E</tspan></text><text class="cls-1" transform="translate(583.68 1222.51) rotate(-148.53)"><tspan x="0" y="0">S</tspan></text><text class="cls-1" transform="translate(491.77 1164.91) rotate(-138.69)"><tspan x="0" y="0">I</tspan></text><text class="cls-1" transform="translate(441.37 1126.61) rotate(-127.93)"><tspan x="0" y="0">G</tspan></text><text class="cls-1" transform="translate(355.59 1019.47) rotate(-112.34)"><tspan x="0" y="0">N</tspan></text><text class="cls-1" transform="translate(303.38 881.52) rotate(-101.54)"><tspan x="0" y="0"> </tspan></text><text class="cls-1" transform="translate(290.22 836.2) rotate(-91.94)"><tspan x="0" y="0">R</tspan></text><text class="cls-1" transform="translate(283 715.9) rotate(-77.5)"><tspan x="0" y="0">O</tspan></text><text class="cls-1" transform="translate(314.54 572.14) rotate(-61.89)"><tspan x="0" y="0">C</tspan></text><text class="cls-1" transform="translate(377.2 452.91) rotate(-47.22)"><tspan x="0" y="0">K</tspan></text><text class="cls-1" transform="translate(467.69 355.96) rotate(-34.06)"><tspan x="0" y="0">S</tspan></text><text class="cls-1" transform="translate(558.72 296.37) rotate(-24.86)"><tspan x="0" y="0">!</tspan></text></svg>